<svg xmlns="http://www.w3.org/2000/svg" xmlns:xlink="http://www.w3.org/1999/xlink" viewBox="0 0 606.94 165.42"><defs><style>.cls-1{isolation:isolate;}.cls-2,.cls-3,.cls-4{mix-blend-mode:multiply;}.cls-2{fill:url(#radial-gradient);}.cls-3{fill:url(#linear-gradient);}.cls-4{fill:url(#linear-gradient-2);}.cls-5{fill:url(#linear-gradient-3);}.cls-6{fill:url(#linear-gradient-4);}.cls-7{fill:#fff;}.cls-8{fill:url(#linear-gradient-5);}.cls-9{mix-blend-mode:hard-light;opacity:0.8;fill:url(#linear-gradient-6);}</style><radialGradient id="radial-gradient" cx="280.42" cy="37.51" r="203.82" gradientTransform="translate(-114.93 143.72) scale(1.49 0.05)" gradientUnits="userSpaceOnUse"><stop offset="0" stop-color="#acb1c8"/><stop offset="0.13" stop-color="#b4b8cd" stop-opacity="0.91"/><stop offset="0.39" stop-color="#c8cbda" stop-opacity="0.67"/><stop offset="0.75" stop-color="#e8e9ef" stop-opacity="0.28"/><stop offset="1" stop-color="#fff" stop-opacity="0"/></radialGradient><linearGradient id="linear-gradient" x1="303.47" y1="129.24" x2="303.47" y2="96.92" gradientUnits="userSpaceOnUse"><stop offset="0" stop-color="#fff" stop-opacity="0"/><stop offset="0.17" stop-color="#dee2e7" stop-opacity="0.23"/><stop offset="0.44" stop-color="#b0b8c5" stop-opacity="0.56"/><stop offset="0.68" stop-color="#8e99ac" stop-opacity="0.8"/><stop offset="0.88" stop-color="#7a879d" stop-opacity="0.95"/><stop offset="1" stop-color="#728097"/></linearGradient><linearGradient id="linear-gradient-2" x1="303.47" y1="32.33" x2="303.47" y2="0" xlink:href="#linear-gradient"/><linearGradient id="linear-gradient-3" x1="498.67" y1="115.94" x2="535.46" y2="115.94" gradientUnits="userSpaceOnUse"><stop offset="0" stop-color="#0082a8"/><stop offset="1" stop-color="#1bd6d0"/></linearGradient><linearGradient id="linear-gradient-4" x1="71.47" y1="27.44" x2="108.37" y2="27.44" gradientUnits="userSpaceOnUse"><stop offset="0" stop-color="#003e93"/><stop offset="1" stop-color="#1b7ba5"/></linearGradient><linearGradient id="linear-gradient-5" x1="71.47" y1="71.69" x2="535.46" y2="71.69" gradientUnits="userSpaceOnUse"><stop offset="0" stop-color="#003e93"/><stop offset="1" stop-color="#1bd6d0"/></linearGradient><linearGradient id="linear-gradient-6" x1="71.47" y1="71.69" x2="535.46" y2="71.69" gradientUnits="userSpaceOnUse"><stop offset="0" stop-color="#fff" stop-opacity="0"/><stop offset="0.06" stop-color="#fff"/><stop offset="0.06" stop-color="#fff" stop-opacity="0.96"/><stop offset="0.08" stop-color="#fff" stop-opacity="0.78"/><stop offset="0.1" stop-color="#fff" stop-opacity="0.61"/><stop offset="0.12" stop-color="#fff" stop-opacity="0.47"/><stop offset="0.15" stop-color="#fff" stop-opacity="0.34"/><stop offset="0.17" stop-color="#fff" stop-opacity="0.23"/><stop offset="0.2" stop-color="#fff" stop-opacity="0.15"/><stop offset="0.23" stop-color="#fff" stop-opacity="0.08"/><stop offset="0.28" stop-color="#fff" stop-opacity="0.03"/><stop offset="0.34" stop-color="#fff" stop-opacity="0.01"/><stop offset="0.5" stop-color="#fff" stop-opacity="0"/><stop offset="0.66" stop-color="#fff" stop-opacity="0.01"/><stop offset="0.72" stop-color="#fff" stop-opacity="0.03"/><stop offset="0.77" stop-color="#fff" stop-opacity="0.08"/><stop offset="0.8" stop-color="#fff" stop-opacity="0.15"/><stop offset="0.83" stop-color="#fff" stop-opacity="0.23"/><stop offset="0.86" stop-color="#fff" stop-opacity="0.34"/><stop offset="0.88" stop-color="#fff" stop-opacity="0.47"/><stop offset="0.9" stop-color="#fff" stop-opacity="0.61"/><stop offset="0.92" stop-color="#fff" stop-opacity="0.78"/><stop offset="0.94" stop-color="#fff" stop-opacity="0.96"/><stop offset="0.94" stop-color="#fff"/><stop offset="1" stop-color="#fff" stop-opacity="0"/></linearGradient></defs><g class="cls-1"><g id="Calque_2" data-name="Calque 2"><g id="OBJECTS"><rect class="cls-2" y="145.98" width="606.94" height="19.44"/><rect class="cls-3" x="108.43" y="96.92" width="390.08" height="32.33"/><rect class="cls-4" x="108.43" width="390.08" height="32.33"/><path class="cls-5" d="M503.54,99.63h-4.87v32.62h4.87c17.63,0,31.92-7.3,31.92-16.31h0C535.46,106.93,521.17,99.63,503.54,99.63Z"/><path class="cls-6" d="M108.37,11.12h-5c-17.63,0-31.92,7.31-31.92,16.32h0c0,9,14.29,16.31,31.92,16.31h5Z"/><path class="cls-7" d="M503.13,99.14H103.39c-17.26,0-30.68-7.1-30.68-15.82H71.47c0,9.26,14,16.79,31.92,16.79H503.13c17.15,0,31.1,7.1,31.1,15.83s-14,15.83-31.1,15.83h-4.46v1h4.46c17.83,0,32.33-7.54,32.33-16.8S521,99.14,503.13,99.14Z"/><path class="cls-7" d="M103.8,44.07H503.54c17.26,0,30.69,7.1,30.69,15.83h1.23c0-9.27-14-16.8-31.92-16.8H103.8c-17.15,0-31.1-7.1-31.1-15.83s14-15.82,31.1-15.82h4.57v-1H103.8C86,10.47,71.47,18,71.47,27.27S86,44.07,103.8,44.07Z"/><path class="cls-8" d="M503.54,43.75H103.39c-17.63,0-31.92-7.3-31.92-16.31V83.32c0,9,14.29,16.31,31.92,16.31H503.54c17.63,0,31.92,7.3,31.92,16.31V60.06h0C535.46,51.05,521.17,43.75,503.54,43.75Z"/><path class="cls-9" d="M503.54,43.75H103.39c-17.63,0-31.92-7.3-31.92-16.31V83.32c0,9,14.29,16.31,31.92,16.31H503.54c17.63,0,31.92,7.3,31.92,16.31V60.06h0C535.46,51.05,521.17,43.75,503.54,43.75Z"/></g></g></g></svg>